<?xml version="1.0" standalone="no"?><!DOCTYPE svg PUBLIC "-//W3C//DTD SVG 1.1//EN" "http://www.w3.org/Graphics/SVG/1.1/DTD/svg11.dtd"><svg t="1616242395791" class="icon" viewBox="0 0 1024 1024" version="1.1" xmlns="http://www.w3.org/2000/svg" p-id="6796" xmlns:xlink="http://www.w3.org/1999/xlink" width="64" height="64"><defs><style type="text/css"></style></defs><path d="M512 512m-512 0a512 512 0 1 0 1024 0 512 512 0 1 0-1024 0Z" fill="#bfbfbf" p-id="6797" data-spm-anchor-id="a313x.7781069.0.i2" class="selected"></path><path d="M286.114909 673.349818c0 77.963636 105.728 141.195636 236.148364 141.195637s236.148364-63.208727 236.148363-141.195637c0-77.963636-105.728-141.172364-236.148363-141.172363s-236.148364 63.208727-236.148364 141.172363zM162.909091 451.490909c0 21.620364 11.729455 41.588364 30.789818 52.410182a62.580364 62.580364 0 0 0 61.626182 0 60.322909 60.322909 0 0 0 30.789818-52.410182c0-21.620364-11.729455-41.588364-30.789818-52.410182a62.580364 62.580364 0 0 0-61.626182 0A60.322909 60.322909 0 0 0 162.909091 451.490909zM351.255273 347.182545a83.153455 83.153455 0 0 0 79.336727 20.875637 81.408 81.408 0 0 0 58.065455-57.041455 79.685818 79.685818 0 0 0-21.248-77.917091 83.153455 83.153455 0 0 0-79.36-20.898909 81.408 81.408 0 0 0-58.065455 57.041455 79.685818 79.685818 0 0 0 21.271273 77.940363zM577.140364 347.182545a83.153455 83.153455 0 0 0 79.336727 20.875637 81.408 81.408 0 0 0 58.065454-57.041455 79.685818 79.685818 0 0 0-21.248-77.917091 83.153455 83.153455 0 0 0-79.36-20.898909 81.408 81.408 0 0 0-58.065454 57.041455 79.685818 79.685818 0 0 0 21.271273 77.940363zM737.885091 451.490909c0 21.620364 11.729455 41.588364 30.789818 52.410182a62.580364 62.580364 0 0 0 61.626182 0A60.322909 60.322909 0 0 0 861.090909 451.490909c0-21.620364-11.729455-41.588364-30.789818-52.410182a62.580364 62.580364 0 0 0-61.626182 0 60.322909 60.322909 0 0 0-30.789818 52.410182z" fill="#FFFFFF" p-id="6798"></path></svg>