<?xml version="1.0" standalone="no"?><!DOCTYPE svg PUBLIC "-//W3C//DTD SVG 1.1//EN" "http://www.w3.org/Graphics/SVG/1.1/DTD/svg11.dtd"><svg t="1616242011962" class="icon" viewBox="0 0 1024 1024" version="1.1" xmlns="http://www.w3.org/2000/svg" p-id="1815" width="64" height="64" xmlns:xlink="http://www.w3.org/1999/xlink"><defs><style type="text/css"></style></defs><path d="M513 5C232.9 5 5 232.9 5 513s227.9 508 508 508 508-227.9 508-508S793.1 5 513 5zM217.4 867.4c63.9-145 177.4-234.3 300.3-234.3 121.6 0 232.5 85.3 297.6 228.2-81.1 70.5-186.7 113.5-302.3 113.5-112.4 0-215.4-40.4-295.6-107.4zM513 560.8c-73.6 0-133.6-59.9-133.6-133.6s60-133.6 133.6-133.6 133.6 59.9 133.6 133.6-60 133.6-133.6 133.6z m337.3 266.6c-62.2-127.2-159.4-210.7-269.7-233.8 65.7-26.8 112.2-91.2 112.2-166.5 0-99.1-80.6-179.8-179.8-179.8s-179.8 80.6-179.8 179.8c0 76.6 48.3 142.1 116 167.9-109.9 25.5-207.1 111.6-267.5 239-80.6-83.1-130.5-196.3-130.5-321C51.2 258.4 258.4 51.2 513 51.2S974.8 258.4 974.8 513c0 121.5-47.5 231.9-124.5 314.4z" p-id="1816" fill="#bfbfbf"></path></svg>